<svg xmlns="http://www.w3.org/2000/svg" 
version="1.1" xmlns:xlink="http://www.w3.org/1999/xlink" 
xmlns:svgjs="http://svgjs.dev/svgjs" 
width="1500" height="1500"
viewBox="0 0 1500 1500">
<rect width="1500" height="1500" fill="#ffffff" rx="50%" ry="50%"></rect>
<g transform="matrix(0.75,0,0,0.75,249.090909090909,282.8395102798131)">
<svg viewBox="0 0 396 247" data-background-color="#ffffff" 
preserveAspectRatio="xMidYMid meet" 
height="1200" width="1400" xmlns="http://www.w3.org/2000/svg" 
xmlns:xlink="http://www.w3.org/1999/xlink">
<g id="tight-bounds" transform="matrix(1,0,0,1,0.2400000000000091,-0.09999999999999432)">
<svg viewBox="0 0 395.52 247.2" height="247.2" 
width="395.52"><g><svg></svg></g><g>
<svg viewBox="0 0 395.52 247.2" height="247.2" 
width="395.52"><g transform="matrix(1,0,0,1,81.05628322478032,47.215199999999996)"><svg viewBox="0 0 233.40743355043935 152.7696" height="152.7696" width="233.40743355043935"><g><svg viewBox="0 0 244.43135999999998 159.98496931583998" height="152.7696" width="233.40743355043935"><g transform="matrix(1,0,0,1,0,98.87712931584)"><svg viewBox="0 0 244.43135999999998 61.107839999999996" height="61.107839999999996" width="244.43135999999998"><g id="textblocktransform"><svg viewBox="0 0 244.43135999999998 61.107839999999996" height="61.107839999999996" width="244.43135999999998" id="textblock"><g><svg viewBox="0 0 244.43135999999998 61.107839999999996" height="61.107839999999996" width="244.43135999999998"><g transform="matrix(1,0,0,1,0,0)"><svg width="244.43135999999998" viewBox="0.55 -29.6 123.59 30.900000000000002" height="61.107839999999996" data-palette-color="#39cccc"><path d="M4.5 0.55L4.5 0.55Q3.7 0.55 2.78 0.08 1.85-0.4 1.2-1.28 0.55-2.15 0.55-3.15 0.55-4.15 1-5.05L1-5.05Q2-7.15 4.23-9.13 6.45-11.1 8.85-12.5 11.25-13.9 12.65-14.25 14.05-14.6 15.38-14.6 16.7-14.6 17.65-13.93 18.6-13.25 18.6-12.5L18.6-12.5Q18.6-12.25 18.55-12.2 18.5-12.15 18.3-12.25L18.3-12.25Q17.7-13.2 15.83-13.2 13.95-13.2 11.58-11.98 9.2-10.75 7.1-8.9L7.1-8.9Q5.35-7.25 4.03-5.18 2.7-3.1 2.7-2.15L2.7-2.15Q2.7-0.3 3.75-0.3 4.8-0.3 6.95-2L6.95-2Q10.5-5 11.8-6.4L11.8-6.4Q16.4-11.35 16.75-11.35L16.75-11.35Q17.35-11.35 18.2-11 19.05-10.65 18.75-10.15L18.75-10.15Q16.2-6.55 15.75-2.9L15.75-2.9Q15.7-2.45 15.7-1.75 15.7-1.05 16.1-0.6L16.1-0.6Q16.85 0.2 18.15-0.5 19.45-1.2 21.78-3.3 24.1-5.4 25.5-7.4L25.5-7.4Q25.7-7.65 25.95-7.53 26.2-7.4 26.2-7.3L26.2-7.3Q26.2-6.55 23.83-4.03 21.45-1.5 20.2-0.6L20.2-0.6Q17.85 1.15 15.85 1.15L15.85 1.15Q13.95 1.15 13.3-0.75L13.3-0.75Q13.15-1.35 13.15-2.1L13.15-2.1Q13.15-4.35 14.1-6.85L14.1-6.85Q13.9-6.75 12.25-4.85 10.6-2.95 8.43-1.2 6.25 0.55 4.5 0.55ZM31.4-13L31.4-13Q31.4-12.65 30.85-11.48 30.3-10.3 27.7-3.4L27.7-3.4Q29.5-5.6 32.25-8.5L32.25-8.5Q37.8-14.3 39.9-14.3L39.9-14.3Q40.35-14.3 40.77-14.05 41.2-13.8 41.2-12.93 41.2-12.05 40.65-10.98 40.1-9.9 39.4-8.35 38.7-6.8 38.45-6.4L38.45-6.4Q42.65-10.2 44.8-11.03 46.95-11.85 47.65-11.85 48.35-11.85 48.35-11.35L48.35-11.35Q48.35-11.05 47.6-9.9 46.85-8.75 45.95-6.5 45.05-4.25 44.95-3.35 44.85-2.45 44.85-1.75 44.85-1.05 45.25-0.6L45.25-0.6Q46 0.2 47.3-0.5 48.6-1.2 50.92-3.3 53.25-5.4 54.65-7.4L54.65-7.4Q54.85-7.65 55.12-7.53 55.4-7.4 55.4-7.28 55.4-7.15 55.3-7L55.3-7Q54.55-5.65 52.6-3.55L52.6-3.55Q49.4-0.1 47.25 0.7L47.25 0.7Q44.9 1.5 43.85 0.9 42.8 0.3 42.55-0.45 42.3-1.2 42.3-1.95L42.3-1.95Q42.3-4.3 43.22-6.65 44.15-9 44.7-9.85L44.7-9.85Q42.8-9.05 41.45-7.85L41.45-7.85Q39.4-6.05 38.15-4.7L38.15-4.7 37.15-3.6Q36.7-2.5 35.57-2.35 34.45-2.2 34.5-3.1L34.5-3.1Q34.6-4.05 36.35-7.35 38.1-10.65 38.1-11.03 38.1-11.4 37.7-11.4L37.7-11.4Q36.8-11.4 34.45-9.35L34.45-9.35Q32.9-7.9 29.87-3.88 26.85 0.15 26.45 0.4L26.45 0.4Q24.65 1.3 24.2 1.3 23.75 1.3 23.75 1.15 23.75 1 23.9 0.7 24.05 0.4 26.95-8L26.95-8Q25.85-6.3 24.95-5.4L24.95-5.4Q24.55-4.95 24.55-5.58 24.55-6.2 24.9-6.65L24.9-6.65Q27.15-9.6 28.2-11.65L28.2-11.65Q28.5-13.4 29.4-13.7L29.4-13.7Q29.95-13.9 30.67-13.7 31.4-13.5 31.4-13ZM56.55 0.55L56.55 0.55Q55.75 0.55 54.82 0.08 53.9-0.4 53.25-1.28 52.59-2.15 52.59-3.15 52.59-4.15 53.05-5.05L53.05-5.05Q54.05-7.15 56.27-9.13 58.5-11.1 60.9-12.5 63.3-13.9 64.7-14.25 66.09-14.6 67.42-14.6 68.75-14.6 69.7-13.93 70.65-13.25 70.65-12.5L70.65-12.5Q70.65-12.25 70.59-12.2 70.55-12.15 70.34-12.25L70.34-12.25Q69.75-13.2 67.87-13.2 66-13.2 63.62-11.98 61.25-10.75 59.15-8.9L59.15-8.9Q57.4-7.25 56.07-5.18 54.75-3.1 54.75-2.15L54.75-2.15Q54.75-0.3 55.8-0.3 56.84-0.3 59-2L59-2Q62.55-5 63.84-6.4L63.84-6.4Q68.45-11.35 68.8-11.35L68.8-11.35Q69.4-11.35 70.25-11 71.09-10.65 70.8-10.15L70.8-10.15Q68.25-6.55 67.8-2.9L67.8-2.9Q67.75-2.45 67.75-1.75 67.75-1.05 68.15-0.6L68.15-0.6Q68.9 0.2 70.2-0.5 71.5-1.2 73.82-3.3 76.15-5.4 77.55-7.4L77.55-7.4Q77.75-7.65 78-7.53 78.25-7.4 78.25-7.3L78.25-7.3Q78.25-6.55 75.87-4.03 73.5-1.5 72.25-0.6L72.25-0.6Q69.9 1.15 67.9 1.15L67.9 1.15Q66 1.15 65.34-0.75L65.34-0.75Q65.2-1.35 65.2-2.1L65.2-2.1Q65.2-4.35 66.15-6.85L66.15-6.85Q65.95-6.75 64.3-4.85 62.65-2.95 60.47-1.2 58.3 0.55 56.55 0.55ZM94.24-25.5L94.24-25.5Q94.84-26.6 94.84-27.2L94.84-27.2Q94.84-28.25 93.99-28.25L93.99-28.25Q93.29-28.25 92.24-27.45L92.24-27.45Q88.24-24.35 84.49-17.65L84.49-17.65Q81.49-12.25 80.09-8.4L80.09-8.4Q83.54-10.75 87.82-16.05 92.09-21.35 94.24-25.5ZM79.34-6.4L79.34-6.4Q78.74-4.7 78.69-4.13 78.64-3.55 78.64-2.58 78.64-1.6 79.14-0.8L79.14-0.8Q79.99 0.55 81.99-0.6L81.99-0.6Q83.49-1.4 85.79-3.53 88.09-5.65 89.34-7.4L89.34-7.4Q89.44-7.55 89.64-7.55L89.64-7.55Q90.09-7.55 89.89-6.9L89.89-6.9Q89.14-5.55 87.12-3.45 85.09-1.35 83.44-0.13 81.79 1.1 80.14 1.1L80.14 1.1Q76.34 1.1 76.34-2.6L76.34-2.6Q76.34-2.75 76.34-2.9L76.34-2.9Q76.54-6.4 79.89-13.48 83.24-20.55 85.94-24.15L85.94-24.15 87.49-26.1Q88.04-26.75 89.09-27.7L89.09-27.7Q91.09-29.6 93.22-29.6 95.34-29.6 96.09-28.3L96.09-28.3Q96.34-27.85 96.34-27 96.34-26.15 95.59-24.6L95.59-24.6Q90.44-15.65 79.34-6.4ZM93.44-13.85L93.44-13.85Q94.69-13.85 94.94-13.05L94.94-13.05Q95.04-12.6 94.82-12.18 94.59-11.75 94.49-11.5 94.39-11.25 94.34-11.1L94.34-11.1Q94.09-10.6 93.84-10.15L93.84-10.15Q90.99-4.45 90.84-2.9L90.84-2.9Q90.79-2.45 90.79-1.75 90.79-1.05 91.19-0.6L91.19-0.6Q91.89 0.2 93.19-0.5 94.49-1.2 96.82-3.3 99.14-5.4 100.59-7.4L100.59-7.4Q100.79-7.65 101.04-7.53 101.29-7.4 101.29-7.28 101.29-7.15 101.19-7L101.19-7Q100.44-5.65 98.49-3.55L98.49-3.55Q95.29-0.1 93.14 0.7L93.14 0.7Q91.89 1.15 91.04 1.15L91.04 1.15Q89.04 1.15 88.39-0.75L88.39-0.75Q88.29-1.1 88.29-1.6L88.29-1.6Q88.29-3.35 89.89-6.9L89.89-6.9Q89.64-6.35 87.94-4.4L87.94-4.4Q87.49-3.9 87.24-4.4L87.24-4.4Q87.19-4.5 87.19-4.67 87.19-4.85 87.39-5.1L87.39-5.1Q89.84-8.15 91.24-10.25L91.24-10.25Q91.14-10.5 91.34-10.9L91.34-10.9Q92.34-13.7 93.09-13.85L93.09-13.85Q93.24-13.85 93.44-13.85ZM97.39-20.5L97.39-20.5 96.99-18.9Q96.99-18.45 96.34-17.45 95.69-16.45 95.34-16.45L95.34-16.45Q93.19-16.45 93.19-17.5L93.19-17.5Q93.19-17.7 95.34-19.35L95.34-19.35 96.19-20Q96.99-20.7 97.19-20.7 97.39-20.7 97.39-20.5ZM102.44 0.55L102.44 0.55Q101.64 0.55 100.71 0.08 99.79-0.4 99.14-1.28 98.49-2.15 98.49-3.15 98.49-4.15 98.94-5.05L98.94-5.05Q99.94-7.15 102.16-9.13 104.39-11.1 106.79-12.5 109.19-13.9 110.59-14.25 111.99-14.6 113.31-14.6 114.64-14.6 115.59-13.93 116.54-13.25 116.54-12.5L116.54-12.5Q116.54-12.25 116.49-12.2 116.44-12.15 116.24-12.25L116.24-12.25Q115.64-13.2 113.76-13.2 111.89-13.2 109.51-11.98 107.14-10.75 105.04-8.9L105.04-8.9Q103.29-7.25 101.96-5.18 100.64-3.1 100.64-2.15L100.64-2.15Q100.64-0.3 101.69-0.3 102.74-0.3 104.89-2L104.89-2Q108.44-5 109.74-6.4L109.74-6.4Q114.34-11.35 114.69-11.35L114.69-11.35Q115.29-11.35 116.14-11 116.99-10.65 116.69-10.15L116.69-10.15Q114.14-6.55 113.69-2.9L113.69-2.9Q113.64-2.45 113.64-1.75 113.64-1.05 114.04-0.6L114.04-0.6Q114.79 0.2 116.09-0.5 117.39-1.2 119.71-3.3 122.04-5.4 123.44-7.4L123.44-7.4Q123.64-7.65 123.89-7.53 124.14-7.4 124.14-7.3L124.14-7.3Q124.14-6.55 121.76-4.03 119.39-1.5 118.14-0.6L118.14-0.6Q115.79 1.15 113.79 1.15L113.79 1.15Q111.89 1.15 111.24-0.75L111.24-0.75Q111.09-1.35 111.09-2.1L111.09-2.1Q111.09-4.35 112.04-6.85L112.04-6.85Q111.84-6.75 110.19-4.85 108.54-2.95 106.36-1.2 104.19 0.55 102.44 0.55Z" opacity="1" transform="matrix(1,0,0,1,0,0)" fill="#39cccc" class="wordmark-text-0" data-fill-palette-color="primary" id="text-0"></path></svg></g></svg></g></svg></g></svg></g><g transform="matrix(1,0,0,1,76.8108508489057,0)"><svg viewBox="0 0 90.80965830218858 84.45103488" height="84.45103488" width="90.80965830218858"><g><svg xmlns="http://www.w3.org/2000/svg" xmlns:xlink="http://www.w3.org/1999/xlink" version="1.1" x="0" y="0" viewBox="5 7.5299999999999985 90.001 83.69899999999997" enable-background="new 0 0 100 100" xml:space="preserve" height="84.45103488" width="90.80965830218858" class="icon-icon-0" data-fill-palette-color="accent" id="icon-0"><path d="M94.999 63.264c-0.002-0.223-0.114-0.431-0.3-0.555L72.763 48.022c0.023-6.168 0.061-16.495 0.061-19.174 0-4.03-4.238-8.617-12.958-14.021-9.5-6.43-12.584-7.297-14.348-7.297h-4.912c-0.048 0-0.095 0.005-0.139 0.014-0.002 0-0.005 0.001-0.007 0.002-0.053 0.012-0.102 0.031-0.15 0.054-0.005 0.003-0.012 0.003-0.018 0.007-0.007 0.003-0.013 0.01-0.02 0.014-0.041 0.023-0.078 0.051-0.113 0.081-0.007 0.006-0.016 0.012-0.022 0.019-0.039 0.038-0.072 0.08-0.101 0.125-0.007 0.011-0.013 0.022-0.02 0.034-0.021 0.038-0.038 0.077-0.051 0.119-0.004 0.014-0.009 0.027-0.013 0.042-0.014 0.054-0.023 0.108-0.023 0.166V23.77c-2.254-1.738-5.076-2.775-8.137-2.775v1.351c6.6 0 11.972 5.354 12.004 11.946-0.033 3.931-3.239 7.119-7.177 7.119-2.055 0-3.727 1.671-3.727 3.726v6.748c0 1.793-1.458 3.251-3.251 3.251-5.435 0-9.856-4.421-9.856-9.855V34.352c0-6.62 5.386-12.006 12.006-12.006v-1.351c-7.365 0-13.358 5.992-13.358 13.357v4.966l-7.087 5.266C7.665 45.806 5 49.281 5 53.369v9.689c0 3.498 1.839 7.872 3.936 9.361 1.827 1.298 3.557 2.455 3.739 2.573l0.003 0.002 23.006 14.844-0.004 0.006c0.038 0.022 0.076 0.042 0.114 0.064l0.06 0.039 0.002-0.003c1.436 0.839 3.069 1.285 4.743 1.285 2.066 0 4.081-0.685 5.716-1.935 0.573 0.139 1.17 0.215 1.785 0.215 1.453 0 2.862-0.414 4.078-1.199 0.009-0.005 0.015-0.013 0.023-0.019l0.002 0.002 9.193-6.38 4.052 2.397v0.599h0.034v-0.579l1.297 0.768 0.002-0.003c0.01 0.006 0.019 0.015 0.03 0.021 0.098 0.052 0.206 0.077 0.312 0.077 0.136 0 0.271-0.041 0.386-0.121l27.202-18.939c0.182-0.126 0.29-0.333 0.29-0.555V63.27h-0.001C94.998 63.268 94.999 63.266 94.999 63.264zM93.125 63.281l-25.863 18.04-2.691-1.613 0.688-0.478c1.43-0.955 2.363-2.707 2.514-4.658 0.607-0.39 2.071-1.333 3.262-2.127 1.965-1.31 2.88-2.849 2.88-4.842 0-1.224-0.697-2.503-2.013-3.085 0.486-2.002 3.231-3.549 3.807-3.853 1.652-0.875 2.401-2.413 1.908-3.922-0.538-1.649-2.318-2.552-3.966-2.015l0.004 0.015c-0.607 0.248-1.275 0.248-1.882-0.003-0.266-0.11-0.503-0.264-0.711-0.45l1.398-0.994c0.178-0.126 0.284-0.33 0.284-0.548 0-0.048 0.005-1.253 0.012-3.104L93.125 63.281zM72.564 67.604c0 1.521-0.703 2.668-2.279 3.718-0.853 0.569-1.85 1.216-2.566 1.679-0.321-2.086-1.618-3.854-3.407-4.824 0.6-0.401 1.512-1.018 2.388-1.638 1.294-0.916 2.44-0.991 3.598-0.991C70.928 65.547 72.564 65.917 72.564 67.604zM45.518 8.881c2.181 0 6.376 2.181 13.602 7.073 0.007 0.005 0.015 0.01 0.023 0.015 8.067 4.998 12.33 9.452 12.33 12.88 0 3.584-0.068 20.872-0.078 23.548l-2.047 1.455-0.165 0.068c0.005 0.013 0.012 0.024 0.018 0.036l-0.769 0.546V26.955c0-0.222-0.109-0.43-0.292-0.556L42.774 8.881H45.518zM43.771 12.968c-0.207-0.143-0.476-0.159-0.698-0.042-0.223 0.116-0.362 0.347-0.362 0.598V26.67c-0.429-0.608-0.907-1.181-1.429-1.709V9.493L67.081 27.31v27.205L44.052 38.412c0.254-0.45 0.468-0.924 0.638-1.42l19.363 13.251c0.115 0.079 0.249 0.118 0.382 0.118 0.107 0 0.216-0.026 0.315-0.078 0.222-0.117 0.36-0.347 0.36-0.597V28.06c0-0.222-0.109-0.429-0.292-0.556L43.771 12.968zM45.149 34.292c0-0.02 0.001-0.04 0.001-0.06h-0.003c-0.016-1.829-0.401-3.571-1.084-5.155V14.812l19.696 13.603v19.989l-18.718-12.81c0.065-0.406 0.101-0.82 0.106-1.243h0.003C45.151 34.332 45.149 34.312 45.149 34.292zM42.825 40.076c0.165-0.174 0.321-0.355 0.471-0.542l24.072 16.832c0.022 0.016 0.046 0.029 0.07 0.042 0.006 0.002 0.011 0.007 0.016 0.009 0.042 0.021 0.085 0.036 0.13 0.047 0.011 0.003 0.021 0.006 0.032 0.008 0.046 0.01 0.092 0.017 0.139 0.017l0 0h0c0.047 0 0.095-0.007 0.143-0.017 0.01-0.002 0.02-0.004 0.029-0.007 0.046-0.012 0.091-0.029 0.135-0.051 0.001-0.001 0.003-0.001 0.004-0.002 0.003-0.002 0.006-0.004 0.009-0.006 0.023-0.013 0.047-0.025 0.07-0.042l1.796-1.276c0.365 0.386 0.809 0.695 1.314 0.904 0.471 0.194 0.965 0.291 1.46 0.291 0.499 0 0.997-0.099 1.47-0.295l-0.001-0.003c0.906-0.23 1.851 0.278 2.146 1.18 0.424 1.301-0.854 2.095-1.256 2.308-0.941 0.499-3.882 2.235-4.49 4.738-0.095-0.006-0.19-0.014-0.29-0.014-1.271 0-2.762 0.096-4.378 1.24-1.45 1.026-3.012 2.052-3.027 2.062l0.091 0.138c-0.579-0.166-1.189-0.256-1.821-0.256-1.376 0-2.696 0.417-3.828 1.215l-5.401 3.959c-0.317-2.303-1.109-4.517-2.34-6.501-0.011-0.017-0.022-0.033-0.034-0.049-0.681-0.908-2.065-2.388-3.667-4.101-1.346-1.438-3.134-3.352-4.611-5.093l13.781 10.116c0.119 0.087 0.26 0.131 0.399 0.131 0.132 0 0.264-0.038 0.378-0.116l8.516-5.739c0.184-0.125 0.295-0.331 0.298-0.554 0.002-0.222-0.104-0.431-0.287-0.56L42.825 44.894V40.076zM41.779 49.348l17.057 11.967c0.118 0.083 0.253 0.123 0.387 0.123 0.212 0 0.422-0.101 0.554-0.288 0.215-0.306 0.141-0.727-0.165-0.941L42.324 48.079c0.178-0.516 0.312-1.052 0.396-1.606l20.067 14.154-7.309 4.926L38.699 53.237c-0.061-0.136-0.105-0.261-0.132-0.372 0.362-0.233 0.707-0.491 1.032-0.771l16.415 11.517c0.118 0.083 0.253 0.123 0.388 0.123 0.212 0 0.422-0.101 0.554-0.288 0.214-0.306 0.141-0.728-0.165-0.941l-16.22-11.381C41.039 50.583 41.445 49.987 41.779 49.348zM34.246 51.884v-6.748c0-1.31 1.066-2.375 2.375-2.375 1.801 0 3.474-0.563 4.853-1.521v3.841c0 4.176-3.255 7.603-7.361 7.883C34.196 52.617 34.246 52.256 34.246 51.884zM18.435 41.002v3.112h-4.181c-0.002 0-0.005 0-0.008 0L18.435 41.002zM51.447 87.171c-0.001 0.001-0.003 0.001-0.004 0.002-0.997 0.643-2.153 0.983-3.345 0.983-3.406 0-6.177-2.77-6.177-6.177v-6.514c0-0.374-0.302-0.676-0.676-0.676-0.373 0-0.675 0.302-0.675 0.676v6.514c0 2.948 1.704 5.504 4.178 6.739-1.247 0.748-2.683 1.157-4.15 1.157-1.446 0-2.857-0.388-4.094-1.118L13.414 73.86c-0.179-0.118-1.885-1.258-3.695-2.544-1.557-1.105-3.367-4.954-3.367-8.259v-9.689c0-4.358 3.545-7.903 7.903-7.903h4.186c0.101 6.095 5.086 11.022 11.203 11.022 1.663 0 3.118-0.89 3.927-2.215v0.063c1.355 0 2.642-0.296 3.803-0.821 0.747 1.953 3.652 5.162 7.531 9.31 1.562 1.669 2.912 3.113 3.556 3.964 1.491 2.416 2.279 5.199 2.279 8.052v0.034h0.001c0.003 0.057 0.015 0.111 0.031 0.163 0.187 1.232 1.249 2.18 2.532 2.18 0.374 0 0.676-0.303 0.676-0.676s-0.302-0.676-0.676-0.676c-0.667 0-1.212-0.544-1.212-1.212v-0.11h-0.003c-0.002-0.141-0.008-0.281-0.014-0.421l6.048-4.432c0.893-0.629 1.943-0.961 3.039-0.961 2.914 0 5.284 2.37 5.284 5.283 0 1.701-0.761 3.307-1.948 4.1L51.447 87.171zM63.352 80.553l3.093 1.854v0.924l-3.83-2.266L63.352 80.553zM67.797 83.222v-0.626l25.851-18.03v0.659L67.797 83.222z" fill="#aaaaaa" data-fill-palette-color="accent"></path></svg></g></svg></g><g></g></svg></g></svg></g><g><path d="M123.66 33.44A116.704 116.704 0 0 1 271.86 33.44L266.598 33.44A111.441 111.441 0 0 0 128.922 33.44L123.66 33.44M123.66 213.76A116.704 116.704 0 0 0 271.86 213.76L266.598 213.76A111.441 111.441 0 0 1 128.922 213.76L123.66 213.76" fill="#b2d0c4" stroke="transparent" data-fill-palette-color="tertiary"></path></g></svg></g><defs></defs></svg><rect width="395.52" height="247.2" fill="none" stroke="none" visibility="hidden"></rect></g></svg></g></svg>